<svg xmlns="http://www.w3.org/2000/svg" width="900" height="500" fill="currentColor" class="data-chart" font-family="system-ui, sans-serif" font-size="10" style="--plot-background:white;display:block;height:intrinsic;max-width:100%" text-anchor="middle" viewBox="0 0 900 500"><style>:where(.data-chart text){white-space:pre}</style><g stroke="currentColor" stroke-opacity=".1" aria-hidden="true" aria-label="y-grid"><path d="M60 455h800M60 404.375h800M60 353.75h800M60 303.125h800M60 252.5h800M60 201.875h800M60 151.25h800M60 100.625h800M60 50h800"/></g><g fill="none" stroke="currentColor" aria-hidden="true" aria-label="x-axis tick"><path d="M90 458v6M165.938 458v6M242.083 458v6M318.02 458v6M393.958 458v6M469.896 458v6M546.042 458v6M621.98 458v6M697.917 458v6M773.854 458v6M850 458v6"/></g><g aria-label="x-axis tick label" font-size="17" font-variant="tabular-nums"><text y=".71em" transform="translate(90 467)">2015</text><text y=".71em" transform="translate(165.938 467)">2016</text><text y=".71em" transform="translate(242.083 467)">2017</text><text y=".71em" transform="translate(318.02 467)">2018</text><text y=".71em" transform="translate(393.958 467)">2019</text><text y=".71em" transform="translate(469.896 467)">2020</text><text y=".71em" transform="translate(546.042 467)">2021</text><text y=".71em" transform="translate(621.98 467)">2022</text><text y=".71em" transform="translate(697.917 467)">2023</text><text y=".71em" transform="translate(773.854 467)">2024</text><text y=".71em" transform="translate(850 467)">2025</text></g><g aria-label="y-axis tick label" font-size="17" font-variant="tabular-nums" text-anchor="end"><text y=".32em" transform="translate(51 455)">0</text><text y=".32em" transform="translate(51 404.375)">500</text><text y=".32em" transform="translate(51 353.75)">1,000</text><text y=".32em" transform="translate(51 303.125)">1,500</text><text y=".32em" transform="translate(51 252.5)">2,000</text><text y=".32em" transform="translate(51 201.875)">2,500</text><text y=".32em" transform="translate(51 151.25)">3,000</text><text y=".32em" transform="translate(51 100.625)">3,500</text><text y=".32em" transform="translate(51 50)">4,000</text></g><text y=".71em" aria-label="y-axis label" font-size="17" text-anchor="start" transform="translate(3 3)">↑ Points</text><g fill="none" stroke-linecap="round" stroke-linejoin="round" stroke-width="3" aria-label="line"><marker id="plot-marker-1" fill="#ffbf3e" stroke="var(--plot-background)" stroke-width="1.5" markerHeight="6.67" markerWidth="6.67" viewBox="-5 -5 10 10"><circle r="3"/></marker><path stroke="#ffbf3e" marker-end="url(#plot-marker-1)" marker-mid="url(#plot-marker-1)" marker-start="url(#plot-marker-1)" d="m90 393.744 75.938-18.225 76.145-25.11 75.938-25.819 75.937-42.525 75.938-32.602 76.146-18.225 75.937-39.488 75.938-29.362 75.937-55.081L850 75.313"/><marker id="plot-marker-2" fill="#00254e" stroke="var(--plot-background)" stroke-width="1.5" markerHeight="6.67" markerWidth="6.67" viewBox="-5 -5 10 10"><circle r="3"/></marker><path stroke="#00254e" marker-end="url(#plot-marker-2)" marker-mid="url(#plot-marker-2)" marker-start="url(#plot-marker-2)" d="m90 429.485 75.938-10.732 76.145-3.544 75.938-12.15 75.937-36.754 75.938-16.909 76.146-20.452 75.937-19.541 75.938-48.904 75.937-109.856L850 107.814"/><marker id="plot-marker-3" fill="#8eb2d9" stroke="var(--plot-background)" stroke-width="1.5" markerHeight="6.67" markerWidth="6.67" viewBox="-5 -5 10 10"><circle r="3"/></marker><path stroke="#8eb2d9" marker-end="url(#plot-marker-3)" marker-mid="url(#plot-marker-3)" marker-start="url(#plot-marker-3)" d="m90 444.673 75.938-1.114 76.145-9.923 75.938-8.201 75.937-5.974 75.938 2.025h76.146l75.937-7.796 75.938-32.197 75.937-22.782L850 352.434"/><marker id="plot-marker-4" fill="#bfa084" stroke="var(--plot-background)" stroke-width="1.5" markerHeight="6.67" markerWidth="6.67" viewBox="-5 -5 10 10"><circle r="3"/></marker><path stroke="#bfa084" marker-end="url(#plot-marker-4)" marker-mid="url(#plot-marker-4)" marker-start="url(#plot-marker-4)" d="m242.083 449.128 75.938-4.658 75.937 1.013 75.938-20.048 76.146 12.758 75.937-24.705 75.938 3.543 75.937-.405L850 412.475"/></g><g aria-label="text" font-size="15"><text y=".32em" transform="translate(80 376.744)">iPhone 6s</text><text y=".32em" transform="translate(80 427.673)">Moto G4 *</text><text y=".32em" transform="translate(155.938 401.752)">Galaxy S7</text><text y=".32em" transform="translate(232.083 333.409)">iPhone 8</text><text y=".32em" transform="translate(232.083 416.636)">Honor 7X</text><text y=".32em" transform="translate(308.02 386.059)">Galaxy S9+</text><text y=".32em" transform="translate(308.02 427.47)">Nokia 2.1 *</text><text y=".32em" transform="translate(383.958 265.065)">iPhone 11</text><text y=".32em" transform="translate(383.958 402.461)">Galaxy A50</text><text y=".32em" transform="translate(459.896 332.396)">Galaxy S20 *</text><text y=".32em" transform="translate(459.896 408.435)">Moto E</text><text y=".32em" transform="translate(536.042 214.238)">iPhone 13</text><text y=".32em" transform="translate(536.042 404.486)">Galaxy A51</text><text y=".32em" transform="translate(611.98 292.403)">Galaxy S22 *</text><text y=".32em" transform="translate(611.98 396.488)">Moto E30</text><text y=".32em" transform="translate(687.917 145.387)">iPhone 15 Pro</text><text y=".32em" transform="translate(687.917 364.493)">Galaxy A24 (4G)</text><text y=".32em" transform="translate(763.854 133.643)">Xiaomi 15 Pro</text><text y=".32em" transform="translate(763.854 399.626)">Moto E14</text><text y=".32em" transform="translate(840 58.313)">iPhone 17 Pro</text><text y=".32em" transform="translate(840 335.434)">Galaxy A26</text></g></svg>
