<svg xmlns="http://www.w3.org/2000/svg" xmlns:xlink="http://www.w3.org/1999/xlink" xml:space="preserve" width="32" height="32" viewBox="0 0 8.467 8.467"><defs><linearGradient id="a"><stop offset="0" style="stop-color:#5cc971;stop-opacity:1"/></linearGradient><linearGradient xlink:href="#a" id="b" x1="72.613" x2="105.886" y1="50.064" y2="50.064" gradientTransform="matrix(.24279 0 0 .24279 -17.435 -7.922)" gradientUnits="userSpaceOnUse"/></defs><circle cx="4.233" cy="4.233" r="4.007" style="display:inline;fill:#e9f9f0;fill-opacity:1;stroke:url(#b);stroke-width:.452803;stroke-dasharray:none"/><path d="M1.794 5.067h.48V3.34l-.575.277V3.32l.573-.272h.309v2.019h.474v.258h-1.26Zm2.417-2.06q.366 0 .553.298.188.298.188.883t-.188.883q-.187.299-.553.299-.366 0-.552-.299-.187-.298-.187-.883t.187-.883q.186-.299.552-.299zm0 2.118q.218 0 .323-.231.107-.232.107-.706 0-.253-.03-.456l-.729 1.14q.115.253.33.253zm0-1.874q-.216 0-.323.231-.105.231-.105.706 0 .216.029.404l.713-1.137q-.116-.204-.314-.204ZM6.1 3.006q.365 0 .552.299.189.298.189.883t-.189.883q-.187.299-.552.299-.366 0-.553-.299-.187-.298-.187-.883t.187-.883q.187-.299.553-.299zm0 2.119q.217 0 .323-.231.107-.232.107-.706 0-.253-.03-.456l-.73 1.14q.115.253.33.253Zm0-1.874q-.216 0-.323.231-.106.231-.106.706 0 .216.03.404l.712-1.137Q6.296 3.25 6.1 3.25Z" aria-label="100" style="font-size:3.135px;font-family:Menlo;-inkscape-font-specification:Menlo;fill:#3b8624;stroke-width:.181149"/></svg>