<svg xmlns="http://www.w3.org/2000/svg" xml:space="preserve" style="fill-rule:evenodd;clip-rule:evenodd;stroke-linejoin:round;stroke-miterlimit:2" viewBox="0 0 448 102"><path d="M.673-.914c-.1-.023-.287-.04-.471-.027a.111.111 0 0 0-.068-.028C.084-.968.08-.953.08-.927c-.194.03-.361.101-.386.245-.005.029.022.02.026-.003.013-.079.168-.12.354-.136C.058-.568.026.05.215.045c.064-.001.004-.049 0-.207C.211-.331.233-.697.24-.829c.173-.002.345.012.439.034.047.011.079.044.084.011.006-.032-.033-.117-.09-.13Z" style="fill:#fe6569;fill-rule:nonzero" transform="scale(63.99999) rotate(-2.961 22.15 -6.325)"/><path d="M.383.032c0-.093.018-.275.018-.357C.401-.406.288-.43.252-.43c-.03 0-.09.232-.109.339a.36.36 0 0 1-.018-.117c0-.211.062-.49.062-.535 0-.046-.079-.06-.107-.06-.041 0-.028.039-.028.054 0 .047-.144.752.084.752C.168.003.179 0 .178-.01a.016.016 0 0 0 .008-.015c0-.093.061-.368.061-.368s.039.016.039.064c0 .049-.032.258-.032.402 0 .145.151.142.151.106C.405.164.383.148.383.032Z" style="fill:#fe6569;fill-rule:nonzero" transform="scale(61.99999) rotate(-2.961 22.68 -13.66)"/><path d="M.572-.362C.565-.34.455-.024.434-.024c-.033 0-.027-.192-.03-.26V-.3c0-.021-.025-.049-.086-.049-.06 0-.06.036-.06.056 0 .052-.063.261-.093.261S.131-.092.131-.129c0-.184.087-.362.185-.362.037 0 .044.081.044.104 0 .022.036.01.036-.004 0-.146-.073-.146-.176-.146-.148 0-.22.214-.22.345C0-.053.064 0 .143 0 .222 0 .26-.152.268-.152c.007 0 .03.195.124.195A.032.032 0 0 0 .408.04C.493.01.591-.334.596-.357.601-.382.578-.383.572-.362Z" style="fill:#fe6569;fill-rule:nonzero" transform="scale(61.99999) rotate(-2.961 22.448 -22.656)"/><path d="M.65-.699c-.078 0-.237.007-.409.008l.006-.034c.008-.056.014-.097.014-.117 0-.075-.122-.137-.122-.041 0 .022-.012.082-.027.161l-.006.03a2.247 2.247 0 0 1-.354-.033c-.014-.003-.025.01-.004.024a.485.485 0 0 0 .342.099c-.02.118-.039.249-.039.351 0 .218.09.335.15.335S.174.062.174-.204c0-.098.028-.264.053-.405.163-.013.34-.041.421-.066.025-.008.031-.023.002-.024Z" style="fill:#fe6569;fill-rule:nonzero" transform="scale(61.99999) rotate(-2.961 22.222 -31.401)"/><path d="M.4-.509C.445-.561.289-.603.222-.518l-.098.099a.962.962 0 0 1-.083.077c-.056.048.062.133.104.176.023.023.104.096.123.115.027.026.112-.002.089-.026C.344-.09.268-.159.207-.22.188-.238.15-.275.156-.28c.026-.022.058-.053.103-.091C.325-.427.388-.495.4-.509Z" style="fill:#fe6569;fill-opacity:.67;fill-rule:nonzero" transform="scale(63.99999) rotate(-2.961 22.454 -41.388)"/><path d="M.383.032c0-.093.018-.275.018-.357C.401-.406.288-.43.252-.43c-.03 0-.09.232-.109.339a.36.36 0 0 1-.018-.117c0-.211.062-.49.062-.535 0-.046-.079-.06-.107-.06-.041 0-.028.039-.028.054 0 .047-.144.752.084.752C.168.003.179 0 .178-.01a.016.016 0 0 0 .008-.015c0-.093.061-.368.061-.368s.039.016.039.064c0 .049-.032.258-.032.402 0 .145.151.142.151.106C.405.164.383.148.383.032Z" style="fill:#fe6569;fill-rule:nonzero" transform="scale(71.99998) rotate(-2.961 20.285 -44.972)"/><path d="M.65-.699c-.078 0-.237.007-.409.008l.006-.034c.008-.056.014-.097.014-.117 0-.075-.122-.137-.122-.041 0 .022-.012.082-.027.161l-.006.03a2.247 2.247 0 0 1-.354-.033c-.014-.003-.025.01-.004.024a.485.485 0 0 0 .342.099c-.02.118-.039.249-.039.351 0 .218.09.335.15.335S.174.062.174-.204c0-.098.028-.264.053-.405.163-.013.34-.041.421-.066.025-.008.031-.023.002-.024Z" style="fill:#fe6569;fill-rule:nonzero" transform="scale(71.99998) rotate(-2.961 20.069 -53.35)"/><path d="M.606-.186c0-.066.013-.116.013-.149 0-.054-.058-.067-.109-.067s-.119.244-.13.244c-.012 0 .079-.404-.093-.404-.087 0-.148.319-.169.444L.117-.157c0-.072.011-.14.011-.198 0-.058-.141-.075-.141-.045 0 .015.012.015.012.03 0 .104-.02.381.118.381.025 0 .024-.009.017-.036.032-.117.075-.483.133-.483.033 0-.02.3-.02.39 0 .089.082.104.115.104s.113-.254.113-.254-.002.272.129.272c.042 0 .002-.045.002-.19Z" style="fill:#fe6569;fill-rule:nonzero" transform="scale(71.99998) rotate(-2.961 19.929 -58.767)"/><path d="M.053-.84c.003.049-.06.464-.051.647.008.182.107.276.163.273C.222.078.139.062.128-.16.122-.305.183-.749.18-.812.177-.874.05-.921.053-.84Z" style="fill:#fe6569;fill-rule:nonzero" transform="scale(71.99998) rotate(-2.961 19.586 -72.04)"/><path d="M.043-.088c-.046.052.11.094.177.009l.098-.099a.962.962 0 0 1 .083-.077C.457-.303.339-.388.297-.431.274-.454.193-.527.174-.546.148-.572.062-.544.085-.52c.013.013.089.082.15.143.019.018.057.055.052.06-.027.022-.059.053-.104.091a1.504 1.504 0 0 0-.14.138Z" style="fill:#fe6569;fill-opacity:.67;fill-rule:nonzero" transform="scale(63.99999) rotate(-2.961 21.924 -85.29)"/><path d="M.398-.4.274-.431C.476-.596.64-.93.333-.93c-.28 0-.578.392-.484.392.025 0 .172-.338.486-.338.251 0 .033.318-.164.375.036-.106.085-.179.085-.204 0-.041-.066-.062-.114-.062-.037 0-.109.219-.109.395 0 .09.055.241.098.241.045 0 .004-.04.004-.162 0-.013 0-.025.002-.038.006.009.013.018.023.021.031.009.296.001.366.066-.219.073-.656.231-.656.321 0 .078.086.11.188.11.192 0 .497-.18.534-.31C.639-.281.49-.372.398-.4Zm.145.207C.514-.094.196.052-.004.052c-.177 0 .311-.191.546-.277a.05.05 0 0 1 .001.032Z" style="fill:#fe6569;fill-rule:nonzero" transform="scale(63.99999) rotate(-2.961 22.154 -99.797)"/><path d="M.053-.84c.003.049-.06.464-.051.647.008.182.107.276.163.273C.222.078.139.062.128-.16.122-.305.183-.749.18-.812.177-.874.05-.921.053-.84Z" style="fill:#fe6569;fill-rule:nonzero" transform="scale(61.99999) rotate(-2.961 22.531 -116.078)"/><path d="M.225-.531c-.047 0-.108.007-.132.074-.073.016-.091.132-.091.226 0 .101.028.235.146.235C.279.004.33-.17.33-.323c0-.152-.047-.208-.105-.208Zm-.027.482c-.062 0-.034-.163-.035-.284C.199-.365.186-.47.218-.47c.107 0 .043.421-.02.421Z" style="fill:#fe6569;fill-rule:nonzero" transform="scale(61.99999) rotate(-2.961 22.424 -120.237)"/><path d="M.438.1A.693.693 0 0 0 .234.057a.695.695 0 0 0 .007-.083.44.44 0 0 0 .14-.279C.381-.38.316-.39.316-.367a.439.439 0 0 1-.081.269C.226-.136.211-.165.188-.165c-.008 0-.015.059-.019.118-.039.011-.071-.018-.071-.1 0-.244.19-.333.19-.355 0-.021-.012-.094-.098-.094-.052 0-.194.209-.194.349 0 .179.099.248.169.248h.001L.165.048v.006C.08.054.006.067-.011.103c-.021.046.009.095.024.102C.024.21.096.186.187.173c.003.004.006.006.01.006.002 0 .006-.003.009-.008a.439.439 0 0 1 .237.027C.497.223.51.266.494.301.393.516-.305.592-.238.449-.19.347.013.346.025.321.037.295-.263.314-.303.427c-.024.07.09.177.134.198.211.099.65-.128.714-.264C.567.313.56.157.438.1Z" style="fill:#fe6569;fill-rule:nonzero" transform="scale(61.99999) rotate(-2.961 22.23 -127.764)"/></svg>